<svg id="Lag_1" data-name="Lag 1" xmlns="http://www.w3.org/2000/svg" width="612" height="612" viewBox="0 0 612 612">
  <defs>
    <style>
      .cls-1 {
        fill: #a7e3f5;
      }

      .cls-2, .cls-3 {
        fill: #ff7bac;
      }

      .cls-3, .cls-4, .cls-5, .cls-6, .cls-7 {
        stroke: #000;
        stroke-width: 4px;
      }

      .cls-3, .cls-4, .cls-5, .cls-6, .cls-7, .cls-8 {
        stroke-miterlimit: 10;
      }

      .cls-4, .cls-8 {
        fill: #f1d4ae;
      }

      .cls-5 {
        fill: #ff1d25;
      }

      .cls-6 {
        fill: #754c24;
      }

      .cls-7 {
        fill: #39b54a;
      }

      .cls-8 {
        font-size: 109px;
        stroke: #ff7bac;
        stroke-width: 2px;
        font-family: FreestyleScript-Regular, Freestyle Script;
        letter-spacing: 0.06em;
      }
    </style>
  </defs>
  <title>Logo</title>
  <g>
    <path class="cls-1" d="M306,604.5A298.5,298.5,0,0,1,94.93,94.93,298.5,298.5,0,1,1,517.07,517.07,296.55,296.55,0,0,1,306,604.5Z"/>
    <path class="cls-2" d="M306,15A291.08,291.08,0,0,1,419.27,574.14,291.08,291.08,0,0,1,192.73,37.86,289.2,289.2,0,0,1,306,15m0-15C137,0,0,137,0,306S137,612,306,612,612,475,612,306,475,0,306,0Z"/>
  </g>
  <g>
    <path class="cls-3" d="M321.24,377.48c44.82-52.93,61.64-121.87,61-200.75l-157.39-1.61C221,254,236.88,323.33,284.3,377.48"/>
    <path class="cls-4" d="M382.27,175.12c11.32-17.26,7.34-30.19-12.85-38.54,3.6-19.58-4.89-32-28.91-35.34-2.76-10.71-9.4-18.95-20.88-24.09-.05,6.21-5.44,11-16.06,14.46-9.45-.74-15.77-5.7-19.27-14.46-9.67,3.8-16.07,12.7-20.88,24.09-20.82,1-29.61,14.16-28.91,36.94-19.83,4.69-19.71,17.68-13.74,33.09.28.75.58,1.49.89,2.24"/>
    <circle class="cls-5" cx="302.77" cy="77.14" r="16.86"/>
    <path class="cls-6" d="M327.66,44.21c-9.12,1.69-16,7.36-21,16.53l-6.74-.47c3-5,3.44-6.75,13.29-16.06A32.4,32.4,0,0,1,327.66,41v4.82"/>
    <polygon class="cls-7" points="356.65 105.89 375.84 75.55 417.6 67.52 420.81 80.36 383.87 88.39 366.54 114.55 356.65 105.89"/>
    <path class="cls-3" d="M233.06,398.57a333.26,333.26,0,0,0,140,0,4.37,4.37,0,0,0,1-8.62c-20.15-8.7-43.19-14.42-70-16.27a4.41,4.41,0,0,0-2,0c-27.29,1.94-50.78,7.23-70,16.27C227,391.13,227.87,398.57,233.06,398.57Z"/>
  </g>
  <text class="cls-8" transform="translate(175.04 489.05)">DINER<tspan x="23.84" y="88">TIME</tspan></text>
</svg>
